<svg xmlns="http://www.w3.org/2000/svg" width="300" height="200" viewBox="0 0 300 200"><path fill="#fff" d="M296.195 120.222l-11.671-16.637 9.888-23.039a1.084 1.084 0 0 0-.144-1.098 1.087 1.087 0 0 0-1.03-.405l-22.468 3.645.006-15.071c0-.32-.141-.624-.387-.83a1.077 1.077 0 0 0-.88-.243l-16.787 2.795-.002-14.753c0-.321-.143-.624-.387-.83a1.073 1.073 0 0 0-.881-.243L50.42 87.155a1.09 1.09 0 0 0-.909 1.072l-.013 15.461-19.448 3.188a1.089 1.089 0 0 0-.912 1.074l.003 15.664-24.621 4.07a1.086 1.086 0 0 0-.824.654c-.146.342-.103.738.112 1.045l11.668 16.639-9.886 23.039c-.157.365-.101.789.146 1.104a1.084 1.084 0 0 0 1.036.398l59.568-10.129c.539-.094.913-.566.901-1.096 0-.045-.005-.09-.01-.135l-.001-.023-.003-.012c-.007-.053-.007-.102-.021-.152l-4.009-14.42 23.052-3.875c.004-.002.009-.002.016-.006.04-.008.076-.02.114-.031.032-.008.064-.016.094-.029a.56.56 0 0 0 .086-.041c.035-.018.07-.033.103-.053.023-.018.045-.039.068-.053.032-.027.068-.051.097-.082.002-.004.007-.004.011-.008.007-.006.012-.02.021-.027.049-.053.092-.109.13-.168a.78.78 0 0 0 .038-.07.864.864 0 0 0 .079-.191c.005-.018.013-.031.016-.045.022-.084.031-.166.033-.254 0-.023-.003-.049-.004-.07-.002-.041-.002-.084-.009-.125-.002-.023-.013-.045-.017-.066-.004-.016-.003-.031-.006-.045l-3.94-14.175 136.013-22.873.914 14.684c0 .016.006.028.007.04.004.026 0 .049.008.072a.814.814 0 0 0 .038.149.928.928 0 0 0 .122.257c.007.014.021.029.029.045.044.061.095.119.151.171l.024.022c.062.054.133.1.211.14.009.001.015.01.022.016l.039.014a.984.984 0 0 0 .153.052c.02.007.037.015.062.018.07.018.143.024.218.024h.004a.995.995 0 0 0 .177-.014l16.237-2.724.411 15.009a1.082 1.082 0 0 0 1.086 1.056c.076 0 .149-.018.224-.033.046.006.093.016.142.016.062 0 .122-.008.184-.018l55.831-9.39c.368-.062.68-.308.821-.65a1.1 1.1 0 0 0-.112-1.043zm-27.594-51.323l-.013 38.974-42.823 7.184 26.106-18.245c.498-.108.858-.546.858-1.061l-.007-24.209 15.879-2.643zM51.687 89.15l198.857-33.284.011 38.964-198.9 33.449.032-39.129zm-2.19 16.746l-.02 23.668c0 .018.005.037.005.055a.831.831 0 0 0 .016.135.762.762 0 0 0 .021.092.776.776 0 0 0 .042.123.674.674 0 0 0 .037.086c.02.037.044.076.067.113.019.021.034.051.052.072.031.039.068.074.104.111.015.014.026.031.042.043l.013.008c.02.018.043.031.064.045.034.025.069.049.104.07l.073.035a.95.95 0 0 0 .118.045l.034.014 30.859 8.768-49.803 8.375-.009-38.876 18.181-2.982zm-31.78 40.428a1.09 1.09 0 0 0-.11-1.053L6.583 129.553l22.561-3.732.005 23.219a1.089 1.089 0 0 0 .873 1.064 1.1 1.1 0 0 0 .336.166l30.998 8.807-52.978 9.01 9.339-21.763zm225.89-17.888l26.371-18.43c.12-.083.213-.188.287-.301.303-.197.499-.535.499-.911l.006-23.903 20.86-3.383-9.345 21.775c-.148.347-.105.747.111 1.056l11.027 15.721-49.816 8.376zM87.02 45.892c-.225.448-.519 1.041-.883 1.777s-.782 1.561-1.251 2.475c-.471.914-.98 1.896-1.531 2.948a153.818 153.818 0 0 1-1.708 3.177 119.017 119.017 0 0 1-1.808 3.152 79.654 79.654 0 0 1-1.798 2.893c1.43-.385 2.808-.98 4.132-1.784a23.824 23.824 0 0 0 3.726-2.799 27.418 27.418 0 0 0 3.178-3.454 26.746 26.746 0 0 0 2.463-3.769 21.22 21.22 0 0 0 1.591-3.753c.376-1.228.565-2.358.565-3.392 0-.874-.108-1.664-.328-2.369-.219-.707-.549-1.292-.993-1.762-.444-.468-1.011-.797-1.698-.986-.689-.19-1.498-.208-2.425-.052-.86.144-1.724.372-2.592.683-.867.312-1.698.671-2.494 1.083-.795.411-1.526.861-2.194 1.35-.67.49-1.243.993-1.719 1.51a21.823 21.823 0 0 0-1.4 1.983 26.66 26.66 0 0 1-1.192 1.769 7.341 7.341 0 0 1-1.261 1.343c-.452.368-.98.601-1.59.705-1.141.19-1.71-.22-1.71-1.224 0-.636.206-1.355.615-2.159.41-.804.984-1.628 1.718-2.473a22.098 22.098 0 0 1 2.623-2.525 25.357 25.357 0 0 1 3.348-2.329 27.076 27.076 0 0 1 3.894-1.873 21.457 21.457 0 0 1 4.251-1.169c1.695-.283 3.173-.279 4.43.014 1.258.293 2.301.81 3.129 1.553.828.744 1.443 1.676 1.849 2.8.403 1.124.605 2.375.605 3.752s-.234 2.86-.706 4.448c-.471 1.589-1.158 3.187-2.066 4.796-.908 1.609-2.026 3.179-3.357 4.714a28.666 28.666 0 0 1-4.589 4.224 30.225 30.225 0 0 1-5.742 3.326c-2.099.934-4.368 1.604-6.803 2.012-.53.09-.948-.01-1.252-.296-.304-.287-.457-.675-.457-1.166 0-.383.067-.766.199-1.146.132-.38.306-.74.517-1.08l8.167-17.597c.383-.661.764-1.202 1.142-1.622a8.459 8.459 0 0 1 1.053-1.012c.325-.253.611-.429.865-.532.251-.102.443-.163.576-.187.596-.099 1.019.001 1.271.304.251.303.377.691.377 1.168 0 .384-.067.801-.198 1.247a7.157 7.157 0 0 1-.539 1.304zm20.324.036c1.099-.185 1.919-.057 2.463.382.543.439.814 1.128.814 2.068 0 .557-.145 1.164-.437 1.823-.291.658-.795 1.361-1.509 2.11-.715.749-1.673 1.551-2.871 2.407-1.199.857-2.699 1.767-4.5 2.729.067.374.272.641.616.801.345.16.801.193 1.372.099a8.771 8.771 0 0 0 1.957-.597 19.38 19.38 0 0 0 2.065-1.031 36.062 36.062 0 0 0 1.997-1.239 56.169 56.169 0 0 0 3.07-2.193c.352-.271.585-.443.706-.515a.966.966 0 0 1 .328-.194c.099-.029.189-.051.267-.064a.639.639 0 0 1 .398.043.865.865 0 0 1 .268.213.738.738 0 0 1 .149.292c.025.108.04.202.04.281 0 .119-.014.264-.04.434-.028.17-.125.376-.298.615-.066.077-.288.293-.666.648-.377.354-.863.78-1.46 1.277a39.563 39.563 0 0 1-2.076 1.608 29.691 29.691 0 0 1-2.503 1.641c-.88.518-1.797.981-2.75 1.385-.955.405-1.896.684-2.822.839-.796.133-1.5.098-2.116-.103a3.793 3.793 0 0 1-1.57-.969 4.4 4.4 0 0 1-.983-1.624 6.146 6.146 0 0 1-.337-2.069c0-.569.113-1.214.337-1.935.225-.719.548-1.459.973-2.219a16.15 16.15 0 0 1 1.559-2.277 14.826 14.826 0 0 1 2.076-2.086 13.424 13.424 0 0 1 2.533-1.635 10.617 10.617 0 0 1 2.95-.945zm-.716 2.861a.83.83 0 0 0-.178.01l-.179.029a3.858 3.858 0 0 0-1.412.534 6.047 6.047 0 0 0-1.201.986 7.945 7.945 0 0 0-.974 1.266c-.284.459-.539.909-.764 1.349-.225.443-.414.862-.566 1.258s-.267.726-.347.991c.463-.316.943-.668 1.44-1.056.496-.387.964-.756 1.399-1.107.438-.353.818-.667 1.144-.946.324-.279.552-.47.685-.572.596-.47 1.006-.887 1.232-1.249.225-.361.337-.663.337-.899 0-.199-.064-.348-.189-.446a.666.666 0 0 0-.427-.148zm9.12 4.454c-.146.33-.288.707-.427 1.133-.138.427-.208.8-.208 1.118 0 .199.04.352.119.458.079.106.232.14.457.101.278-.046.626-.187 1.043-.423.417-.235.867-.529 1.351-.882.483-.352.986-.748 1.509-1.187.523-.438 1.042-.89 1.56-1.353a55.052 55.052 0 0 0 1.48-1.379c.471-.457.891-.875 1.261-1.255.106-.111.233-.197.378-.262a1.6 1.6 0 0 1 .376-.122c.265-.045.483.011.657.167.171.157.259.388.259.691 0 .279-.094.605-.279.981-.187.376-.51.768-.973 1.177a69.78 69.78 0 0 1-2.563 2.653 32.724 32.724 0 0 1-2.572 2.289 17.708 17.708 0 0 1-2.543 1.705c-.84.459-1.658.755-2.453.888-.543.091-.996.094-1.361.009-.365-.084-.657-.234-.875-.449a1.805 1.805 0 0 1-.467-.815 3.967 3.967 0 0 1-.14-1.07c0-.65.095-1.33.288-2.045.192-.712.421-1.377.685-1.992.465-1.111.934-2.215 1.412-3.315.476-1.099.914-2.105 1.312-3.021l6.019-13.82c.239-.557.561-.975.964-1.254.403-.279.811-.454 1.222-.522.41-.069.785-.02 1.123.151.337.168.506.504.506 1.007 0 .239-.057.5-.169.783-.112.284-.255.593-.427.926a195.79 195.79 0 0 0-1.183 2.481 378.735 378.735 0 0 0-3.079 6.765c-.549 1.238-1.086 2.444-1.609 3.617a515.214 515.214 0 0 0-2.653 6.066zm9.754-8.605c.225-.408.483-.717.776-.925a2.13 2.13 0 0 1 .894-.388c.504-.083.938.005 1.3.269.364.263.547.647.547 1.15-.013.122-.03.244-.05.367a1.247 1.247 0 0 1-.129.378 41.164 41.164 0 0 0-.784 1.672c-.1.221-.196.439-.289.654-.092.213-.206.471-.338.771-.159.357-.338.749-.536 1.173a26.95 26.95 0 0 0-.565 1.296c-.179.44-.331.869-.457 1.288-.126.42-.188.794-.188 1.125 0 .359.089.579.268.661.179.083.434.096.764.041a3.604 3.604 0 0 0 1.163-.433c.403-.228.811-.5 1.222-.821a13.85 13.85 0 0 0 1.21-1.066c.398-.391.773-.782 1.123-1.172a38.2 38.2 0 0 0 .973-1.116c.298-.354.546-.668.746-.94.264-.295.529-.466.794-.51a.583.583 0 0 1 .586.219c.152.187.229.446.229.776 0 .305-.076.642-.229 1.012-.152.371-.401.736-.745 1.099a56.161 56.161 0 0 1-2.067 2.323 23.583 23.583 0 0 1-2.155 2.029 15.09 15.09 0 0 1-2.215 1.533 6.883 6.883 0 0 1-2.244.813c-1.073.18-1.917.046-2.533-.4-.616-.448-.925-1.253-.925-2.418 0-.61.086-1.22.259-1.832.172-.611.377-1.212.617-1.802.238-.588.49-1.161.754-1.716.264-.554.49-1.078.675-1.574.066-.183.182-.468.347-.853.166-.385.342-.778.527-1.181l.675-1.502zm2.185-4.836a3.378 3.378 0 0 1 1.52-2.738 2.988 2.988 0 0 1 1.201-.46c.768-.128 1.304-.069 1.609.179.304.247.457.594.457 1.046 0 .251-.05.538-.149.859a3.4 3.4 0 0 1-.448.919 3.095 3.095 0 0 1-.774.775 2.678 2.678 0 0 1-1.133.447c-.82.139-1.397.105-1.728-.098-.331-.202-.516-.511-.555-.929zm13.966.404c.583-.097 1.092-.109 1.53-.037.437.072.807.169 1.112.29.345.155.649.335.913.542a9.02 9.02 0 0 1 .596-.439c.187-.122.391-.24.617-.352.225-.11.45-.185.675-.222.583-.097 1.034-.053 1.351.132.318.185.477.444.477.775 0 .172-.048.352-.141.54l-4.648 9.579.377-.401a111.588 111.588 0 0 1 3.854-2.799 43.932 43.932 0 0 1 2.404-1.565c.596-.351 1.023-.579 1.282-.681.259-.103.421-.162.486-.171.306-.052.54.026.706.229.165.205.249.479.249.824 0 .384-.11.792-.327 1.226-.22.433-.554.775-1.004 1.022-.595.404-1.291.849-2.087 1.333s-1.623 1.01-2.484 1.577a43.235 43.235 0 0 0-2.592 1.854 24.557 24.557 0 0 0-2.434 2.146l-3.854 7.619a26.006 26.006 0 0 1-.863 1.992c-.258.52-.514.941-.765 1.261-.252.32-.509.555-.775.705s-.569.254-.916.312c-.516.087-.923-.023-1.221-.332-.299-.308-.448-.714-.448-1.218 0-.53.126-1.167.376-1.91.253-.743.607-1.562 1.064-2.452a32.691 32.691 0 0 1 1.659-2.84 54.629 54.629 0 0 1 2.164-3.095l2.464-3.551c-.503.547-1 1.028-1.489 1.441-.49.414-.96.76-1.412 1.042-.45.28-.871.5-1.261.658a5.023 5.023 0 0 1-1.023.311 2.81 2.81 0 0 1-1.468-.121 2.803 2.803 0 0 1-1.162-.829c-.326-.383-.581-.857-.766-1.421a6.085 6.085 0 0 1-.279-1.9c0-1.457.282-2.823.846-4.095a12.59 12.59 0 0 1 5.086-5.778c1.068-.629 2.111-1.031 3.131-1.201zm-.756 3.622c-.623.105-1.225.361-1.808.771-.583.409-1.1.905-1.55 1.49a7.49 7.49 0 0 0-1.073 1.938 5.988 5.988 0 0 0-.397 2.113c0 .212.017.438.05.677.034.24.106.456.218.649.113.192.279.34.497.443.219.103.52.121.904.059.278-.048.606-.224.984-.533.377-.308.768-.684 1.172-1.129a18.37 18.37 0 0 0 1.182-1.45 26.99 26.99 0 0 0 1.042-1.516c.311-.488.559-.923.745-1.306.185-.382.277-.659.277-.832 0-.292-.078-.532-.237-.725a1.646 1.646 0 0 0-.587-.447 2.547 2.547 0 0 0-1.419-.202zm8.385 6.405c.318-.728.682-1.541 1.091-2.438.412-.896.826-1.787 1.244-2.671s.812-1.726 1.183-2.523c.37-.797.682-1.474.935-2.032l6.556-13.991c.078-.185.202-.373.367-.559.163-.187.352-.36.564-.522.212-.162.438-.299.677-.411.239-.114.476-.189.716-.23.583-.096.985-.055 1.212.125.223.182.338.432.338.748 0 .292-.073.612-.219.961a7.758 7.758 0 0 1-.495.986 91.063 91.063 0 0 0-1.679 3.292 963.597 963.597 0 0 0-1.61 3.329 321.482 321.482 0 0 1-1.619 3.33 85.914 85.914 0 0 1-1.709 3.295c.369-.42.767-.855 1.182-1.312.417-.454.87-.879 1.36-1.28a9.463 9.463 0 0 1 1.609-1.055 6.536 6.536 0 0 1 1.948-.633 5.781 5.781 0 0 1 1.211-.083c.386.014.724.088 1.013.216.293.13.524.336.696.619.171.282.259.648.259 1.1 0 .596-.09 1.158-.27 1.684a8.84 8.84 0 0 1-.682 1.526c-.28.491-.586.964-.916 1.424-.331.459-.646.923-.944 1.391a11 11 0 0 0-.775 1.43 4.92 4.92 0 0 0-.406 1.538.322.322 0 0 1-.011.081.329.329 0 0 0-.011.081c0 .266.089.417.269.452.18.037.405.031.685-.016a4.083 4.083 0 0 0 1.152-.401 9.322 9.322 0 0 0 1.243-.763 18.19 18.19 0 0 0 1.25-.995c.418-.36.815-.725 1.195-1.094.376-.367.724-.72 1.04-1.059.319-.338.589-.633.815-.882.118-.125.245-.226.378-.302.133-.074.259-.122.378-.142a.686.686 0 0 1 .605.167c.164.15.248.38.248.683 0 .279-.095.612-.288 1.002-.191.389-.521.802-.983 1.237a59.912 59.912 0 0 1-2.226 2.201 27.84 27.84 0 0 1-2.284 1.931 15.992 15.992 0 0 1-2.293 1.458c-.763.392-1.508.649-2.234.771-.941.158-1.695.068-2.265-.267-.569-.334-.855-.966-.855-1.894 0-.675.117-1.333.349-1.975.231-.642.516-1.272.854-1.892.337-.619.698-1.223 1.082-1.811.384-.588.722-1.157 1.013-1.709.158-.252.282-.481.366-.688a1.65 1.65 0 0 0 .13-.647c0-.198-.054-.353-.158-.461-.107-.108-.271-.144-.498-.106a4.936 4.936 0 0 0-2.164.939 10.163 10.163 0 0 0-1.828 1.775 19.847 19.847 0 0 0-1.548 2.216c-.478.789-.921 1.542-1.334 2.259a15.5 15.5 0 0 0-.566 1.098c-.191.41-.39.829-.594 1.262-.208.432-.421.862-.647 1.292a9.973 9.973 0 0 1-.703 1.16 4.658 4.658 0 0 1-.777.865c-.271.23-.552.371-.842.42-.465.077-.823.001-1.074-.229-.251-.229-.377-.548-.377-.959 0-.305.053-.634.16-.99.101-.348.273-.791.511-1.322zm25.667-12.202a136.33 136.33 0 0 0-1.39 3.024c-.438.98-.847 1.887-1.231 2.718-.158.346-.315.738-.466 1.182-.153.443-.229.823-.229 1.141 0 .186.042.324.127.415.085.093.229.122.429.088.276-.047.628-.188 1.053-.423.426-.236.881-.532 1.371-.885s1.008-.752 1.549-1.194a54.003 54.003 0 0 0 1.601-1.36 56.03 56.03 0 0 0 2.77-2.64c.212-.181.409-.287.597-.317a.557.557 0 0 1 .554.205c.146.175.22.414.22.718s-.073.628-.22.97c-.145.342-.409.698-.794 1.065-.86.926-1.73 1.814-2.612 2.664a34.741 34.741 0 0 1-2.621 2.296 18.131 18.131 0 0 1-2.574 1.711c-.846.46-1.668.757-2.462.891-.529.089-.974.093-1.332.014-.357-.078-.646-.223-.863-.432a1.738 1.738 0 0 1-.467-.776 3.488 3.488 0 0 1-.142-1.02c0-.662.115-1.369.34-2.122.225-.753.478-1.437.754-2.053.4-.888.793-1.767 1.185-2.641.39-.875.771-1.712 1.142-2.517l-.856.142c-.738.125-1.248.09-1.528-.101-.277-.192-.414-.439-.414-.744 0-.132.041-.303.126-.509.086-.207.213-.406.378-.6.164-.193.369-.369.606-.528a2.04 2.04 0 0 1 .814-.315l2.146-.359 4.192-9.026c.264-.547.591-.962.982-1.247.39-.283.797-.461 1.223-.531a1.806 1.806 0 0 1 1.093.134c.331.157.495.479.495.97 0 .252-.057.516-.167.794a15.24 15.24 0 0 1-.448.978 49.63 49.63 0 0 1-.437.877c-.174.341-.355.703-.547 1.085-.191.383-.391.784-.596 1.202-.206.419-.407.823-.605 1.214-.449.923-.927 1.897-1.432 2.921l6.478-1.083c.316-.054.607-.086.874-.098.264-.011.492.017.683.084.191.068.341.179.448.333s.161.377.161.668c0 .146-.024.296-.069.448-.05.154-.133.3-.261.44a1.83 1.83 0 0 1-.517.386 3.78 3.78 0 0 1-.843.3l-8.268 1.443zm18.277-3.296a144.831 144.831 0 0 1-5.483 1.019l-1.728.289a151.48 151.48 0 0 0-1.163 2.548c-.431.966-.881 1.979-1.348 3.038a334.66 334.66 0 0 0-1.41 3.207l-1.343 3.065c-.423.966-.81 1.836-1.15 2.618-.347.779-.624 1.397-.836 1.858-.146.329-.324.64-.536.934a5.064 5.064 0 0 1-.697.781c-.25.226-.508.413-.774.557-.265.144-.51.235-.732.272a1.443 1.443 0 0 1-.857-.095c-.25-.118-.376-.349-.376-.693 0-.171.038-.38.118-.626.08-.244.192-.532.338-.86l7.014-16.034-1.055.176c-.729.122-1.225.092-1.487-.089-.267-.181-.4-.423-.4-.729 0-.318.165-.654.496-1.007.333-.354.816-.583 1.45-.689l2.344-.394c.94-2.05 1.884-3.771 2.833-5.161.945-1.39 1.875-2.519 2.791-3.388.912-.868 1.804-1.513 2.672-1.936.866-.424 1.698-.701 2.492-.835a2.485 2.485 0 0 1 1.062.042c.338.09.635.258.896.505.257.248.467.582.626.999.158.417.237.923.237 1.519 0 .569-.079 1.212-.237 1.928-.04.192-.118.361-.239.507a2.097 2.097 0 0 1-1.212.73 1.36 1.36 0 0 1-.734-.067c-.226-.088-.34-.264-.34-.528 0-.173.012-.333.03-.483.02-.149.03-.296.03-.441 0-.556-.105-.937-.307-1.14-.209-.205-.483-.278-.826-.219-.41.069-.892.327-1.438.777-.549.449-1.106 1.019-1.67 1.709a20.502 20.502 0 0 0-1.62 2.308 16.322 16.322 0 0 0-1.271 2.545l4.628-.774c.411-.068.794-.127 1.154-.173.356-.046.671-.058.941-.039.271.022.485.095.638.221.151.127.227.336.227.627 0 .146-.024.296-.077.451a1.426 1.426 0 0 1-.269.452 1.865 1.865 0 0 1-.527.405 3.686 3.686 0 0 1-.875.313zm17.504 3.607a22.003 22.003 0 0 1-2.037 2.277 26.15 26.15 0 0 1-2.396 2.08 18.599 18.599 0 0 1-2.423 1.588c-.793.431-1.509.7-2.144.806-.638.106-1.153.015-1.552-.277-.397-.292-.595-.867-.595-1.728 0-.609.106-1.335.318-2.179a14.18 14.18 0 0 1-3.062 3.532 11.552 11.552 0 0 1-2.225 1.436 9.552 9.552 0 0 1-2.681.856 5.563 5.563 0 0 1-1.262.071 2.408 2.408 0 0 1-1.062-.299 1.88 1.88 0 0 1-.735-.781c-.188-.347-.278-.804-.278-1.375 0-.013.024-.218.08-.619.052-.4.22-1.042.505-1.932s.727-2.052 1.321-3.49c.598-1.437 1.437-3.2 2.522-5.289.279-.55.6-.964.964-1.245a2.623 2.623 0 0 1 1.183-.525 2.45 2.45 0 0 1 .577-.026c.199.012.384.054.557.125.17.07.309.173.416.307a.779.779 0 0 1 .159.499c0 .133-.021.262-.06.387-.067.236-.208.554-.428.955-.219.401-.474.862-.766 1.38-.293.52-.6 1.078-.923 1.675a24.655 24.655 0 0 0-.902 1.839 17.76 17.76 0 0 0-.717 1.896 7.284 7.284 0 0 0-.338 1.814c0 .239.065.447.198.623.132.177.352.239.654.188.864-.143 1.685-.52 2.467-1.128a13.383 13.383 0 0 0 2.166-2.14 22.185 22.185 0 0 0 1.797-2.587c.536-.905.982-1.724 1.34-2.459a12.12 12.12 0 0 0 .666-1.562c.193-.547.399-1.061.626-1.535.226-.475.484-.882.777-1.222.29-.34.654-.546 1.092-.62.478-.08.854.01 1.133.269.279.258.418.599.418 1.022 0 .239-.092.582-.269 1.028-.177.448-.404.963-.676 1.544-.271.583-.567 1.204-.884 1.867a34.048 34.048 0 0 0-.885 2.005 20.088 20.088 0 0 0-.676 1.961c-.177.631-.268 1.207-.268 1.723 0 .477.293.667.874.569.41-.069.919-.274 1.528-.613.61-.34 1.248-.782 1.919-1.323a22.036 22.036 0 0 0 2.004-1.856 16.171 16.171 0 0 0 1.777-2.185l.206 2.673zm.617-1.097c-.148.33-.289.707-.429 1.134-.139.428-.208.799-.208 1.118 0 .199.038.351.118.457.08.106.23.14.456.103.278-.046.626-.187 1.043-.422.416-.236.866-.531 1.352-.882.481-.353.986-.748 1.509-1.188.523-.438 1.044-.89 1.56-1.352a46.956 46.956 0 0 0 1.48-1.382c.47-.456.892-.874 1.262-1.252.107-.112.232-.198.378-.262.145-.065.271-.105.377-.124.265-.044.483.013.657.169.172.156.258.386.258.69 0 .279-.094.606-.278.981-.185.376-.511.768-.973 1.176a69.922 69.922 0 0 1-2.564 2.655 32.674 32.674 0 0 1-2.571 2.288 17.913 17.913 0 0 1-2.544 1.708c-.841.458-1.658.754-2.453.888-.542.091-.997.093-1.361.009-.363-.085-.656-.235-.873-.45a1.83 1.83 0 0 1-.468-.816 3.96 3.96 0 0 1-.139-1.069c0-.648.098-1.331.288-2.045.192-.715.422-1.378.688-1.992.463-1.11.932-2.216 1.41-3.315.476-1.101.914-2.107 1.31-3.021l6.019-13.822c.238-.557.561-.975.965-1.253.403-.279.812-.454 1.221-.521a1.804 1.804 0 0 1 1.124.148c.337.169.506.505.506 1.008 0 .239-.057.5-.169.784-.112.284-.257.592-.428.926-.33.679-.726 1.505-1.182 2.482-.457.978-.947 2.039-1.472 3.186a509.7 509.7 0 0 0-1.608 3.576A12863.3 12863.3 0 0 1 214 31.181a365.587 365.587 0 0 0-1.47 3.335c-.459 1.048-.854 1.96-1.183 2.729zm-85.651 92.337l3.521-.59-.142.676-2.796.467-.508 2.471 2.306-.389-.13.674-2.307.387-.618 2.996 2.796-.467-.141.674-3.521.588 1.54-7.487zm7.022 2.469c-.726-.369-1.203-.637-.975-1.734.207-1.01 1.04-2.018 2.069-2.189 1.018-.17 1.355.5 1.355 1.41l-.737.23c0-.531-.152-1.037-.77-.932-.682.115-1.062.729-1.191 1.357-.12.605-.054.781.941 1.295.77.4 1.29.76 1.051 1.916-.238 1.178-1.04 2.211-2.254 2.416-1.278.213-1.56-.586-1.43-1.758l.748-.223c-.076.818-.033 1.416.845 1.27.63-.105 1.17-.619 1.354-1.516.197-.988-.345-1.22-1.006-1.542zm7.045-4.173l-1.561.263.141-.677 3.813-.638-.141.674-1.527.256-1.398 6.814-.727.121 1.4-6.813zm5.289 4.091l.997-.166-.334 1.66-.997.164.334-1.658zm11.294-.938l3.409-4.028c.426-.505.76-.896.89-1.505.142-.706-.207-1.146-.91-1.028-.854.145-1.432.913-1.699 1.735l-.693.021c.421-1.274 1.266-2.249 2.546-2.465 1.137-.188 1.766.4 1.529 1.587-.153.718-.621 1.34-1.14 1.958l-3.012 3.568 3.109-.518-.141.672-4.031.676.143-.673zm11.161-4.827c-.251 1.202-.596 3.81-2.807 4.179-2.209.369-1.494-2.211-1.224-3.504.356-1.763.705-3.835 2.805-4.187 2.298-.384 1.399 2.671 1.226 3.512zm-3.274.549c-.605 2.938-.129 3.046.606 2.923.835-.141 1.333-.561 1.906-3.345.598-2.896.151-3.061-.618-2.932-1.36.23-1.591 1.862-1.894 3.354zm9.776-1.637c-.251 1.201-.596 3.808-2.806 4.177-2.209.369-1.495-2.211-1.224-3.503.356-1.761.703-3.834 2.806-4.188 2.296-.383 1.398 2.672 1.224 3.514zm-3.273.548c-.607 2.941-.13 3.045.605 2.924.835-.139 1.335-.561 1.907-3.343.596-2.897.151-3.062-.616-2.933-1.364.227-1.59 1.861-1.896 3.352zm5.909 1.493c.271.259.585.446 1.052.365 1.31-.219 1.745-1.959 1.981-2.964-.498.451-.985.749-1.55.843-1.364.23-1.624-.843-1.375-2.089.271-1.323 1.19-2.572 2.578-2.804 1.874-.313 1.494 2.003 1.202 3.431-.305 1.525-.986 3.959-2.959 4.287-.585.098-1.114-.041-1.473-.383l.544-.686zm2.492-5.932c-.89.147-1.42 1.019-1.614 1.938-.175.854-.119 1.679.854 1.518.512-.086 1.041-.531 1.476-.941.462-2.302-.036-2.631-.716-2.515zm-115.021-5.599V98.548l1.976-.331c2.324-.39 3.579-.135 4.252 1.054.652 1.193.744 3.313.744 6.66s-.092 5.478-.744 6.889c-.674 1.413-1.929 2.087-4.252 2.476l-1.976.33zm2.509-2.929c.86-.146 1.349-.32 1.604-1.197.116-.415.208-1.034.232-1.853.023-.818.023-1.908.023-3.303 0-1.396 0-2.488-.023-3.297-.024-.785-.117-1.374-.232-1.773-.257-.77-.745-.782-1.604-.637v12.06zm10.782-16.372l5.742-.961v2.578l-3.231.542v4.483l2.324-.388v2.742l-2.324.388v4.694l3.231-.541v2.579l-5.742.961V96.325zm15.942 14.408l-1.603-10.465-.094-.706-.141.024v11.454l-2.323.39V94.353l3.068-.513 1.487 7.557.117.887.046-.009.118-.924 1.487-8.057 3.068-.514v17.08l-2.323.391V98.793l-.14.023-.094.736-1.604 11.003-1.069.178zm18.266-6.563a5.166 5.166 0 0 1-.42 1.929 4.032 4.032 0 0 1-1 1.421c-.465.449-1.092.765-1.928.905-.837.14-1.487.039-1.953-.256-.465-.27-.767-.662-.975-1.092-.257-.491-.396-1.097-.42-1.788V95.227a5.138 5.138 0 0 1 .42-1.905c.208-.5.511-1.015.975-1.443.464-.426 1.116-.768 1.953-.906.836-.141 1.463-.013 1.928.258.466.271.791.682 1 1.111.257.492.396 1.095.42 1.764v10.064zm-2.51-9.642c0-.465-.092-.775-.324-1.015-.117-.097-.303-.135-.513-.1-.441.074-.651.435-.743.752-.07.198-.094.41-.094.643v10.062c0 .486.116.792.349 1.009.116.098.279.14.488.105.441-.074.65-.387.745-.752.07-.175.092-.388.092-.642V94.528zm11.502 2.745l-.209-.756-.139.024v9.688l-2.302.385V89.538l2.231-.374 2.441 8.492.209.755.141-.024v-9.69l2.302-.385v17.079l-2.231.373-2.443-8.491zm15.337-6.167c0-.558-.023-1.181-.186-1.642-.163-.437-.419-.719-.813-.654-.65.131-.86.841-.86 1.84 0 .58.256 1.141.628 1.729.372.587.859 1.18 1.349 1.819.581.763 1.161 1.549 1.604 2.333.441.786.743 1.619.743 2.549 0 1.139-.187 2.237-.72 3.117-.534.879-1.395 1.533-2.766 1.764-1.604.268-2.51-.185-3.02-1.027-.511-.844-.628-2.056-.628-3.334l2.464-.645c0 .72.024 1.436.209 1.94.162.531.441.855.975.766.745-.123 1.023-.961 1.023-2.053 0-.558-.278-1.162-.65-1.773-.209-.29-.419-.604-.65-.913a59.388 59.388 0 0 1-1.58-2.083 8.033 8.033 0 0 1-1.232-2.443 4.24 4.24 0 0 1-.208-1.335c0-.93.208-1.965.744-2.82.535-.833 1.349-1.504 2.534-1.726 1.51-.277 2.393.205 2.882 1.027.488.849.627 1.964.627 2.916l-2.469.648zm7.576-3.267V85.26l7.251-1.213v2.579l-2.37.398v14.499l-2.511.42v-14.5l-2.37.396zm17.36 11.596l-1.301-6.986-.673.113v7.202l-2.512.42V83.107l2.512-.419c2.997-.502 4.273.98 4.273 4.209 0 1.697-.44 3.305-1.393 4.115l1.604 8.003-2.51.42zm-1.974-9.198c.348-.058.814-.182 1.183-.57.373-.388.676-1.065.676-2.274 0-1.208-.303-1.808-.676-2.071-.368-.262-.835-.208-1.183-.149v5.064zm9.826 7.883l2.581-17.51 3.068-.514 2.578 16.647-2.439.409-.465-3.408-2.419.404-.463 3.562-2.441.41zm4.254-12.237l-.071-.431-.137.024-.072.453-.721 5.512 1.721-.288-.72-5.27zm8.389-4.378v-2.579l7.251-1.214v2.58l-2.37.396v14.499l-2.511.42v-14.5l-2.37.398zm12.874-4.734l2.512-.42V93.43l-2.512.42V76.771zm15.547 10.968a5.129 5.129 0 0 1-.418 1.929c-.21.5-.535.996-1 1.423-.465.449-1.092.762-1.928.903-.837.14-1.486.04-1.953-.254-.464-.27-.767-.662-.976-1.092-.258-.491-.395-1.095-.417-1.787V78.799c.023-.68.163-1.33.417-1.907.209-.5.512-1.016.976-1.441.467-.426 1.116-.766 1.953-.907.836-.14 1.463-.014 1.928.258.465.271.79.682 1 1.111.256.491.396 1.096.418 1.765v10.061zm-2.51-9.64c0-.466-.095-.775-.327-1.015-.115-.097-.3-.136-.509-.101-.441.074-.651.435-.743.752a1.885 1.885 0 0 0-.094.643v10.061c0 .489.116.794.351 1.011.115.096.277.14.486.105.442-.074.651-.387.744-.752.068-.175.092-.388.092-.643V78.099zm11.503 2.745l-.21-.755-.14.024v9.69l-2.301.385V73.109l2.232-.374 2.44 8.491.209.754.139-.023v-9.69l2.301-.385V88.96l-2.23.374-2.44-8.49zm15.335-6.169c0-.557-.022-1.18-.185-1.642-.163-.438-.418-.72-.814-.654-.649.133-.86.842-.86 1.84 0 .581.259 1.143.629 1.729.373.588.86 1.181 1.347 1.82.581.763 1.162 1.548 1.604 2.334s.743 1.619.743 2.547c0 1.139-.186 2.238-.721 3.118-.533.88-1.394 1.535-2.765 1.764-1.604.269-2.511-.184-3.021-1.027-.511-.844-.628-2.056-.628-3.334l2.464-.645c0 .721.023 1.436.208 1.94.165.53.443.856.978.767.743-.124 1.021-.961 1.021-2.054 0-.558-.278-1.16-.65-1.772-.209-.291-.418-.604-.651-.914a61.808 61.808 0 0 1-1.577-2.083 7.997 7.997 0 0 1-1.233-2.442 4.243 4.243 0 0 1-.211-1.336c0-.929.211-1.963.744-2.819.536-.833 1.349-1.504 2.533-1.725 1.511-.277 2.395.203 2.882 1.028.489.847.628 1.963.628 2.915l-2.465.645zM98.71 174.117v3.684c-.036 1.102-.255 2.121-.657 3.031a6.336 6.336 0 0 1-1.569 2.23c-.729.707-1.715 1.201-3.029 1.418-1.313.221-2.335.064-3.064-.398-.729-.426-1.204-1.037-1.532-1.713-.4-.773-.62-1.721-.657-2.809v-15.797c.038-1.064.257-2.086.657-2.992.329-.787.803-1.594 1.532-2.262.729-.67 1.751-1.205 3.064-1.426 1.314-.219 2.299-.02 3.029.404s1.242 1.068 1.569 1.744c.402.773.621 1.719.657 2.771v3.686l-3.686.617v-3.686c0-.729-.183-1.209-.583-1.58-.182-.152-.511-.207-.912-.139-.694.115-1.022.682-1.205 1.188-.109.309-.145.645-.183 1.014V178.9c.036.762.256 1.234.621 1.576.183.15.437.219.766.162.838-.139 1.167-.633 1.35-1.209.109-.273.145-.609.145-1.012v-3.686l3.687-.614zm19.918.35c-.036 1.102-.255 2.123-.657 3.029a6.387 6.387 0 0 1-1.568 2.232c-.729.705-1.715 1.199-3.028 1.42-1.313.219-2.335.062-3.065-.4-.729-.426-1.204-1.039-1.532-1.715-.4-.771-.62-1.721-.657-2.811v-15.795c.037-1.062.256-2.086.657-2.992.33-.783.804-1.592 1.532-2.262.73-.67 1.751-1.207 3.065-1.426 1.313-.219 2.299-.02 3.028.404.729.428 1.241 1.07 1.568 1.746.401.771.621 1.719.657 2.77v15.8zm-3.94-15.137c0-.73-.145-1.217-.51-1.594-.183-.15-.475-.213-.803-.158-.694.117-1.022.684-1.168 1.182-.108.311-.145.645-.145 1.01v15.795c0 .768.183 1.248.547 1.588.183.15.438.217.767.164.693-.117 1.022-.609 1.168-1.18.11-.275.145-.609.145-1.01V159.33zm13.9 18.981v-26.814l3.1-.52c3.648-.611 5.619-.211 6.676 1.656 1.022 1.871 1.167 5.203 1.167 10.457 0 5.252-.145 8.596-1.167 10.812-1.059 2.219-3.028 3.279-6.676 3.889l-3.1.52zm3.939-4.602c1.35-.227 2.116-.5 2.517-1.881.183-.65.329-1.621.365-2.906.036-1.283.036-2.996.036-5.186 0-2.191 0-3.904-.036-5.176-.037-1.234-.183-2.158-.365-2.783-.401-1.211-1.168-1.229-2.517-1.004v18.936zm23.968-.068l-2.044-10.971-1.057.178v11.311l-3.94.658v-26.812l3.94-.66c4.706-.785 6.712 1.539 6.712 6.609 0 2.666-.692 5.189-2.188 6.461l2.517 12.566-3.94.66zm-3.099-14.44c.547-.092 1.274-.289 1.859-.896.584-.607 1.059-1.672 1.059-3.568 0-1.898-.475-2.84-1.059-3.254-.585-.412-1.312-.328-1.859-.236v7.954zm26.779 4.967c-.037 1.102-.257 2.123-.657 3.029a6.342 6.342 0 0 1-1.57 2.232c-.729.705-1.713 1.199-3.029 1.42-1.312.221-2.333.062-3.064-.4-.729-.426-1.202-1.041-1.531-1.715-.4-.771-.619-1.721-.656-2.809V150.13c.037-1.064.256-2.088.656-2.994.329-.783.803-1.592 1.531-2.262.731-.67 1.753-1.203 3.064-1.424 1.316-.221 2.3-.021 3.029.404.731.424 1.243 1.068 1.57 1.742.4.771.62 1.721.657 2.771v15.801zm-3.941-15.137c0-.73-.146-1.217-.513-1.594-.183-.152-.474-.211-.804-.158-.691.117-1.021.682-1.167 1.182-.108.309-.145.643-.145 1.01v15.795c0 .77.183 1.248.546 1.586.184.154.438.221.766.166.692-.117 1.023-.609 1.17-1.18.108-.273.146-.607.146-1.012v-15.795zm13.898-7.836l3.94-.658c1.715-.291 3.428-.139 4.742.885 1.313 1.018 2.189 2.914 2.189 5.98 0 3.064-.876 5.217-2.189 6.678-1.314 1.459-3.027 2.256-4.742 2.545v10.727l-3.94.656v-26.813zm3.94 11.416c1.203-.199 1.969-.549 2.408-1.242.438-.658.546-1.66.546-3.156s-.111-2.535-.546-3.121c-.439-.582-1.203-.744-2.408-.545v8.064zm22.728-8.689c0-.877-.036-1.857-.292-2.578-.254-.689-.657-1.131-1.276-1.029-1.021.207-1.35 1.322-1.35 2.891 0 .914.4 1.793.985 2.717.585.926 1.348 1.854 2.116 2.857.911 1.197 1.822 2.432 2.515 3.664.696 1.236 1.169 2.541 1.169 4 0 1.787-.291 3.514-1.13 4.895-.84 1.383-2.188 2.412-4.342 2.771-2.519.422-3.94-.289-4.744-1.617-.801-1.322-.983-3.225-.983-5.232l3.868-1.01c0 1.127.033 2.252.326 3.043.259.832.693 1.344 1.533 1.203 1.168-.195 1.604-1.51 1.604-3.223 0-.877-.437-1.824-1.021-2.785-.327-.455-.658-.949-1.02-1.436a92.118 92.118 0 0 1-2.482-3.27c-.876-1.203-1.531-2.48-1.934-3.836a6.613 6.613 0 0 1-.327-2.096c0-1.459.327-3.082 1.167-4.428.839-1.309 2.114-2.361 3.977-2.707 2.37-.436 3.757.32 4.522 1.613.767 1.332.984 3.082.984 4.578l-3.865 1.015z"/></svg>